<?xml version="1.0" encoding="UTF-8"?>
<svg xmlns="http://www.w3.org/2000/svg" xmlns:xlink="http://www.w3.org/1999/xlink" width="504" height="504" viewBox="0 0 504 504">
<defs>
<g>
<g id="glyph-0-0">
<path d="M 0.390625 0 L 0.390625 -8.609375 L 7.21875 -8.609375 L 7.21875 0 Z M 6.140625 -1.078125 L 6.140625 -7.53125 L 1.46875 -7.53125 L 1.46875 -1.078125 Z M 6.140625 -1.078125 "/>
</g>
<g id="glyph-0-1">
<path d="M 3.25 -8.390625 C 4.332031 -8.390625 5.117188 -7.941406 5.609375 -7.046875 C 5.984375 -6.359375 6.171875 -5.410156 6.171875 -4.203125 C 6.171875 -3.066406 6 -2.125 5.65625 -1.375 C 5.164062 -0.300781 4.359375 0.234375 3.234375 0.234375 C 2.234375 0.234375 1.484375 -0.203125 0.984375 -1.078125 C 0.578125 -1.816406 0.375 -2.800781 0.375 -4.03125 C 0.375 -4.976562 0.5 -5.796875 0.75 -6.484375 C 1.207031 -7.753906 2.039062 -8.390625 3.25 -8.390625 Z M 3.234375 -0.734375 C 3.785156 -0.734375 4.222656 -0.972656 4.546875 -1.453125 C 4.867188 -1.941406 5.03125 -2.847656 5.03125 -4.171875 C 5.03125 -5.117188 4.910156 -5.898438 4.671875 -6.515625 C 4.441406 -7.128906 3.988281 -7.4375 3.3125 -7.4375 C 2.6875 -7.4375 2.226562 -7.144531 1.9375 -6.5625 C 1.65625 -5.976562 1.515625 -5.117188 1.515625 -3.984375 C 1.515625 -3.128906 1.609375 -2.441406 1.796875 -1.921875 C 2.078125 -1.128906 2.554688 -0.734375 3.234375 -0.734375 Z M 3.234375 -0.734375 "/>
</g>
<g id="glyph-0-2">
<path d="M 1.15625 -5.9375 L 1.15625 -6.75 C 1.914062 -6.820312 2.441406 -6.945312 2.734375 -7.125 C 3.035156 -7.300781 3.265625 -7.710938 3.421875 -8.359375 L 4.25 -8.359375 L 4.25 0 L 3.125 0 L 3.125 -5.9375 Z M 1.15625 -5.9375 "/>
</g>
<g id="glyph-0-3">
<path d="M 0.375 0 C 0.414062 -0.71875 0.566406 -1.34375 0.828125 -1.875 C 1.085938 -2.414062 1.59375 -2.90625 2.34375 -3.34375 L 3.46875 -4 C 3.96875 -4.289062 4.320312 -4.539062 4.53125 -4.75 C 4.851562 -5.070312 5.015625 -5.441406 5.015625 -5.859375 C 5.015625 -6.347656 4.863281 -6.734375 4.5625 -7.015625 C 4.269531 -7.304688 3.882812 -7.453125 3.40625 -7.453125 C 2.675781 -7.453125 2.175781 -7.179688 1.90625 -6.640625 C 1.75 -6.335938 1.664062 -5.929688 1.65625 -5.421875 L 0.578125 -5.421875 C 0.585938 -6.148438 0.722656 -6.742188 0.984375 -7.203125 C 1.441406 -8.015625 2.25 -8.421875 3.40625 -8.421875 C 4.363281 -8.421875 5.0625 -8.160156 5.5 -7.640625 C 5.945312 -7.117188 6.171875 -6.539062 6.171875 -5.90625 C 6.171875 -5.238281 5.9375 -4.664062 5.46875 -4.1875 C 5.195312 -3.90625 4.707031 -3.566406 4 -3.171875 L 3.1875 -2.734375 C 2.8125 -2.523438 2.515625 -2.320312 2.296875 -2.125 C 1.898438 -1.789062 1.648438 -1.414062 1.546875 -1 L 6.140625 -1 L 6.140625 0 Z M 0.375 0 "/>
</g>
<g id="glyph-0-4">
<path d="M 3.125 0.234375 C 2.125 0.234375 1.398438 -0.0351562 0.953125 -0.578125 C 0.503906 -1.128906 0.28125 -1.796875 0.28125 -2.578125 L 1.390625 -2.578125 C 1.429688 -2.035156 1.53125 -1.640625 1.6875 -1.390625 C 1.96875 -0.953125 2.460938 -0.734375 3.171875 -0.734375 C 3.734375 -0.734375 4.179688 -0.878906 4.515625 -1.171875 C 4.847656 -1.472656 5.015625 -1.859375 5.015625 -2.328125 C 5.015625 -2.898438 4.835938 -3.300781 4.484375 -3.53125 C 4.128906 -3.769531 3.640625 -3.890625 3.015625 -3.890625 C 2.941406 -3.890625 2.867188 -3.882812 2.796875 -3.875 C 2.722656 -3.875 2.648438 -3.875 2.578125 -3.875 L 2.578125 -4.8125 C 2.691406 -4.789062 2.785156 -4.78125 2.859375 -4.78125 C 2.929688 -4.78125 3.007812 -4.78125 3.09375 -4.78125 C 3.488281 -4.78125 3.8125 -4.84375 4.0625 -4.96875 C 4.507812 -5.1875 4.734375 -5.578125 4.734375 -6.140625 C 4.734375 -6.554688 4.582031 -6.875 4.28125 -7.09375 C 3.988281 -7.320312 3.644531 -7.4375 3.25 -7.4375 C 2.550781 -7.4375 2.066406 -7.203125 1.796875 -6.734375 C 1.648438 -6.484375 1.566406 -6.117188 1.546875 -5.640625 L 0.5 -5.640625 C 0.5 -6.265625 0.625 -6.796875 0.875 -7.234375 C 1.300781 -8.015625 2.054688 -8.40625 3.140625 -8.40625 C 3.992188 -8.40625 4.65625 -8.210938 5.125 -7.828125 C 5.59375 -7.453125 5.828125 -6.898438 5.828125 -6.171875 C 5.828125 -5.660156 5.691406 -5.242188 5.421875 -4.921875 C 5.242188 -4.722656 5.019531 -4.566406 4.75 -4.453125 C 5.1875 -4.328125 5.53125 -4.09375 5.78125 -3.75 C 6.03125 -3.40625 6.15625 -2.984375 6.15625 -2.484375 C 6.15625 -1.679688 5.890625 -1.023438 5.359375 -0.515625 C 4.835938 -0.015625 4.09375 0.234375 3.125 0.234375 Z M 3.125 0.234375 "/>
</g>
<g id="glyph-0-5">
<path d="M 3.96875 -2.96875 L 3.96875 -6.78125 L 1.28125 -2.96875 Z M 3.984375 0 L 3.984375 -2.046875 L 0.3125 -2.046875 L 0.3125 -3.078125 L 4.15625 -8.421875 L 5.046875 -8.421875 L 5.046875 -2.96875 L 6.28125 -2.96875 L 6.28125 -2.046875 L 5.046875 -2.046875 L 5.046875 0 Z M 3.984375 0 "/>
</g>
<g id="glyph-0-6">
<path d="M 1.484375 -2.140625 C 1.554688 -1.535156 1.835938 -1.117188 2.328125 -0.890625 C 2.578125 -0.773438 2.863281 -0.71875 3.1875 -0.71875 C 3.8125 -0.71875 4.273438 -0.914062 4.578125 -1.3125 C 4.878906 -1.707031 5.03125 -2.148438 5.03125 -2.640625 C 5.03125 -3.222656 4.847656 -3.675781 4.484375 -4 C 4.128906 -4.320312 3.703125 -4.484375 3.203125 -4.484375 C 2.835938 -4.484375 2.523438 -4.410156 2.265625 -4.265625 C 2.003906 -4.128906 1.785156 -3.9375 1.609375 -3.6875 L 0.6875 -3.734375 L 1.328125 -8.25 L 5.6875 -8.25 L 5.6875 -7.234375 L 2.125 -7.234375 L 1.765625 -4.90625 C 1.960938 -5.050781 2.148438 -5.160156 2.328125 -5.234375 C 2.640625 -5.359375 3 -5.421875 3.40625 -5.421875 C 4.175781 -5.421875 4.828125 -5.171875 5.359375 -4.671875 C 5.898438 -4.179688 6.171875 -3.554688 6.171875 -2.796875 C 6.171875 -2.003906 5.921875 -1.300781 5.421875 -0.6875 C 4.929688 -0.0820312 4.148438 0.21875 3.078125 0.21875 C 2.398438 0.21875 1.796875 0.0234375 1.265625 -0.359375 C 0.742188 -0.742188 0.453125 -1.335938 0.390625 -2.140625 Z M 1.484375 -2.140625 "/>
</g>
<g id="glyph-0-7">
<path d="M 3.515625 -8.421875 C 4.453125 -8.421875 5.101562 -8.175781 5.46875 -7.6875 C 5.84375 -7.207031 6.03125 -6.707031 6.03125 -6.1875 L 4.984375 -6.1875 C 4.921875 -6.519531 4.820312 -6.78125 4.6875 -6.96875 C 4.425781 -7.320312 4.039062 -7.5 3.53125 -7.5 C 2.9375 -7.5 2.460938 -7.222656 2.109375 -6.671875 C 1.765625 -6.128906 1.578125 -5.351562 1.546875 -4.34375 C 1.785156 -4.695312 2.085938 -4.960938 2.453125 -5.140625 C 2.785156 -5.296875 3.160156 -5.375 3.578125 -5.375 C 4.285156 -5.375 4.898438 -5.148438 5.421875 -4.703125 C 5.941406 -4.253906 6.203125 -3.582031 6.203125 -2.6875 C 6.203125 -1.925781 5.953125 -1.25 5.453125 -0.65625 C 4.960938 -0.0703125 4.257812 0.21875 3.34375 0.21875 C 2.550781 0.21875 1.867188 -0.078125 1.296875 -0.671875 C 0.734375 -1.273438 0.453125 -2.28125 0.453125 -3.6875 C 0.453125 -4.726562 0.578125 -5.613281 0.828125 -6.34375 C 1.316406 -7.726562 2.210938 -8.421875 3.515625 -8.421875 Z M 3.4375 -0.71875 C 3.988281 -0.71875 4.398438 -0.90625 4.671875 -1.28125 C 4.953125 -1.65625 5.09375 -2.097656 5.09375 -2.609375 C 5.09375 -3.035156 4.96875 -3.441406 4.71875 -3.828125 C 4.476562 -4.210938 4.03125 -4.40625 3.375 -4.40625 C 2.925781 -4.40625 2.53125 -4.253906 2.1875 -3.953125 C 1.84375 -3.660156 1.671875 -3.210938 1.671875 -2.609375 C 1.671875 -2.078125 1.828125 -1.628906 2.140625 -1.265625 C 2.453125 -0.898438 2.882812 -0.71875 3.4375 -0.71875 Z M 3.4375 -0.71875 "/>
</g>
<g id="glyph-0-8">
<path d="M 1.03125 -8.609375 L 7.296875 -8.609375 L 7.296875 -7.546875 L 2.15625 -7.546875 L 2.15625 -4.9375 L 6.921875 -4.9375 L 6.921875 -3.9375 L 2.15625 -3.9375 L 2.15625 -1.03125 L 7.390625 -1.03125 L 7.390625 0 L 1.03125 0 Z M 4.203125 -8.609375 Z M 4.203125 -8.609375 "/>
</g>
<g id="glyph-0-9">
<path d="M 1.296875 -6.28125 L 2.96875 -1.171875 L 4.71875 -6.28125 L 5.875 -6.28125 L 3.5 0 L 2.375 0 L 0.0625 -6.28125 Z M 1.296875 -6.28125 "/>
</g>
<g id="glyph-0-10">
<path d="M 3.390625 -6.421875 C 3.835938 -6.421875 4.269531 -6.316406 4.6875 -6.109375 C 5.101562 -5.898438 5.421875 -5.628906 5.640625 -5.296875 C 5.847656 -4.972656 5.988281 -4.601562 6.0625 -4.1875 C 6.125 -3.894531 6.15625 -3.429688 6.15625 -2.796875 L 1.546875 -2.796875 C 1.566406 -2.160156 1.71875 -1.648438 2 -1.265625 C 2.28125 -0.878906 2.71875 -0.6875 3.3125 -0.6875 C 3.863281 -0.6875 4.300781 -0.867188 4.625 -1.234375 C 4.8125 -1.441406 4.945312 -1.6875 5.03125 -1.96875 L 6.0625 -1.96875 C 6.039062 -1.738281 5.953125 -1.484375 5.796875 -1.203125 C 5.640625 -0.921875 5.46875 -0.6875 5.28125 -0.5 C 4.957031 -0.1875 4.554688 0.0195312 4.078125 0.125 C 3.828125 0.1875 3.539062 0.21875 3.21875 0.21875 C 2.4375 0.21875 1.773438 -0.0625 1.234375 -0.625 C 0.691406 -1.195312 0.421875 -1.992188 0.421875 -3.015625 C 0.421875 -4.023438 0.691406 -4.84375 1.234375 -5.46875 C 1.785156 -6.101562 2.503906 -6.421875 3.390625 -6.421875 Z M 5.0625 -3.640625 C 5.019531 -4.097656 4.921875 -4.460938 4.765625 -4.734375 C 4.484375 -5.242188 4.003906 -5.5 3.328125 -5.5 C 2.835938 -5.5 2.425781 -5.320312 2.09375 -4.96875 C 1.769531 -4.625 1.597656 -4.179688 1.578125 -3.640625 Z M 3.28125 -6.421875 Z M 3.28125 -6.421875 "/>
</g>
<g id="glyph-0-11">
<path d="M 0.78125 -6.28125 L 1.78125 -6.28125 L 1.78125 -5.390625 C 2.070312 -5.753906 2.382812 -6.015625 2.71875 -6.171875 C 3.050781 -6.335938 3.421875 -6.421875 3.828125 -6.421875 C 4.710938 -6.421875 5.3125 -6.109375 5.625 -5.484375 C 5.800781 -5.140625 5.890625 -4.65625 5.890625 -4.03125 L 5.890625 0 L 4.8125 0 L 4.8125 -3.953125 C 4.8125 -4.335938 4.753906 -4.644531 4.640625 -4.875 C 4.453125 -5.269531 4.113281 -5.46875 3.625 -5.46875 C 3.375 -5.46875 3.171875 -5.441406 3.015625 -5.390625 C 2.722656 -5.304688 2.46875 -5.132812 2.25 -4.875 C 2.070312 -4.664062 1.957031 -4.453125 1.90625 -4.234375 C 1.851562 -4.015625 1.828125 -3.695312 1.828125 -3.28125 L 1.828125 0 L 0.78125 0 Z M 3.25 -6.421875 Z M 3.25 -6.421875 "/>
</g>
<g id="glyph-0-12">
<path d="M 0.984375 -8.03125 L 2.046875 -8.03125 L 2.046875 -6.28125 L 3.046875 -6.28125 L 3.046875 -5.421875 L 2.046875 -5.421875 L 2.046875 -1.3125 C 2.046875 -1.09375 2.125 -0.945312 2.28125 -0.875 C 2.351562 -0.832031 2.488281 -0.8125 2.6875 -0.8125 C 2.738281 -0.8125 2.789062 -0.8125 2.84375 -0.8125 C 2.90625 -0.820312 2.972656 -0.828125 3.046875 -0.828125 L 3.046875 0 C 2.929688 0.03125 2.804688 0.0507812 2.671875 0.0625 C 2.546875 0.0820312 2.40625 0.09375 2.25 0.09375 C 1.757812 0.09375 1.425781 -0.03125 1.25 -0.28125 C 1.070312 -0.53125 0.984375 -0.859375 0.984375 -1.265625 L 0.984375 -5.421875 L 0.140625 -5.421875 L 0.140625 -6.28125 L 0.984375 -6.28125 Z M 0.984375 -8.03125 "/>
</g>
<g id="glyph-0-13">
</g>
<g id="glyph-0-14">
<path d="M 0.78125 -6.25 L 1.84375 -6.25 L 1.84375 0 L 0.78125 0 Z M 0.78125 -8.609375 L 1.84375 -8.609375 L 1.84375 -7.40625 L 0.78125 -7.40625 Z M 0.78125 -8.609375 "/>
</g>
<g id="glyph-0-15">
<path d="M 0.78125 -6.28125 L 1.8125 -6.28125 L 1.8125 -5.390625 C 2.0625 -5.691406 2.289062 -5.914062 2.5 -6.0625 C 2.84375 -6.300781 3.238281 -6.421875 3.6875 -6.421875 C 4.1875 -6.421875 4.585938 -6.296875 4.890625 -6.046875 C 5.054688 -5.910156 5.210938 -5.703125 5.359375 -5.421875 C 5.585938 -5.765625 5.859375 -6.015625 6.171875 -6.171875 C 6.492188 -6.335938 6.851562 -6.421875 7.25 -6.421875 C 8.09375 -6.421875 8.664062 -6.113281 8.96875 -5.5 C 9.132812 -5.175781 9.21875 -4.734375 9.21875 -4.171875 L 9.21875 0 L 8.125 0 L 8.125 -4.359375 C 8.125 -4.773438 8.019531 -5.0625 7.8125 -5.21875 C 7.601562 -5.375 7.347656 -5.453125 7.046875 -5.453125 C 6.628906 -5.453125 6.269531 -5.3125 5.96875 -5.03125 C 5.675781 -4.757812 5.53125 -4.300781 5.53125 -3.65625 L 5.53125 0 L 4.453125 0 L 4.453125 -4.09375 C 4.453125 -4.519531 4.398438 -4.832031 4.296875 -5.03125 C 4.140625 -5.320312 3.84375 -5.46875 3.40625 -5.46875 C 3.007812 -5.46875 2.644531 -5.3125 2.3125 -5 C 1.988281 -4.695312 1.828125 -4.140625 1.828125 -3.328125 L 1.828125 0 L 0.78125 0 Z M 0.78125 -6.28125 "/>
</g>
<g id="glyph-1-0">
<path d="M 0 -0.390625 L -8.609375 -0.390625 L -8.609375 -7.21875 L 0 -7.21875 Z M -1.078125 -6.140625 L -7.53125 -6.140625 L -7.53125 -1.46875 L -1.078125 -1.46875 Z M -1.078125 -6.140625 "/>
</g>
<g id="glyph-1-1">
<path d="M -3.890625 -0.5 L -3.890625 -3.4375 L -2.796875 -3.4375 L -2.796875 -0.5 Z M -3.890625 -0.5 "/>
</g>
<g id="glyph-1-2">
<path d="M -8.390625 -3.25 C -8.390625 -4.332031 -7.941406 -5.117188 -7.046875 -5.609375 C -6.359375 -5.984375 -5.410156 -6.171875 -4.203125 -6.171875 C -3.066406 -6.171875 -2.125 -6 -1.375 -5.65625 C -0.300781 -5.164062 0.234375 -4.359375 0.234375 -3.234375 C 0.234375 -2.234375 -0.203125 -1.484375 -1.078125 -0.984375 C -1.816406 -0.578125 -2.800781 -0.375 -4.03125 -0.375 C -4.976562 -0.375 -5.796875 -0.5 -6.484375 -0.75 C -7.753906 -1.207031 -8.390625 -2.039062 -8.390625 -3.25 Z M -0.734375 -3.234375 C -0.734375 -3.785156 -0.972656 -4.222656 -1.453125 -4.546875 C -1.941406 -4.867188 -2.847656 -5.03125 -4.171875 -5.03125 C -5.117188 -5.03125 -5.898438 -4.910156 -6.515625 -4.671875 C -7.128906 -4.441406 -7.4375 -3.988281 -7.4375 -3.3125 C -7.4375 -2.6875 -7.144531 -2.226562 -6.5625 -1.9375 C -5.976562 -1.65625 -5.117188 -1.515625 -3.984375 -1.515625 C -3.128906 -1.515625 -2.441406 -1.609375 -1.921875 -1.796875 C -1.128906 -2.078125 -0.734375 -2.554688 -0.734375 -3.234375 Z M -0.734375 -3.234375 "/>
</g>
<g id="glyph-1-3">
<path d="M -1.28125 -1.03125 L -1.28125 -2.25 L 0 -2.25 L 0 -1.03125 Z M -1.28125 -1.03125 "/>
</g>
<g id="glyph-1-4">
<path d="M 0 -0.375 C -0.71875 -0.414062 -1.34375 -0.566406 -1.875 -0.828125 C -2.414062 -1.085938 -2.90625 -1.59375 -3.34375 -2.34375 L -4 -3.46875 C -4.289062 -3.96875 -4.539062 -4.320312 -4.75 -4.53125 C -5.070312 -4.851562 -5.441406 -5.015625 -5.859375 -5.015625 C -6.347656 -5.015625 -6.734375 -4.863281 -7.015625 -4.5625 C -7.304688 -4.269531 -7.453125 -3.882812 -7.453125 -3.40625 C -7.453125 -2.675781 -7.179688 -2.175781 -6.640625 -1.90625 C -6.335938 -1.75 -5.929688 -1.664062 -5.421875 -1.65625 L -5.421875 -0.578125 C -6.148438 -0.585938 -6.742188 -0.722656 -7.203125 -0.984375 C -8.015625 -1.441406 -8.421875 -2.25 -8.421875 -3.40625 C -8.421875 -4.363281 -8.160156 -5.0625 -7.640625 -5.5 C -7.117188 -5.945312 -6.539062 -6.171875 -5.90625 -6.171875 C -5.238281 -6.171875 -4.664062 -5.9375 -4.1875 -5.46875 C -3.90625 -5.195312 -3.566406 -4.707031 -3.171875 -4 L -2.734375 -3.1875 C -2.523438 -2.8125 -2.320312 -2.515625 -2.125 -2.296875 C -1.789062 -1.898438 -1.414062 -1.648438 -1 -1.546875 L -1 -6.140625 L 0 -6.140625 Z M 0 -0.375 "/>
</g>
<g id="glyph-1-5">
<path d="M -5.9375 -1.15625 L -6.75 -1.15625 C -6.820312 -1.914062 -6.945312 -2.441406 -7.125 -2.734375 C -7.300781 -3.035156 -7.710938 -3.265625 -8.359375 -3.421875 L -8.359375 -4.25 L 0 -4.25 L 0 -3.125 L -5.9375 -3.125 Z M -5.9375 -1.15625 "/>
</g>
<g id="glyph-1-6">
<path d="M 0.234375 -3.125 C 0.234375 -2.125 -0.0351562 -1.398438 -0.578125 -0.953125 C -1.128906 -0.503906 -1.796875 -0.28125 -2.578125 -0.28125 L -2.578125 -1.390625 C -2.035156 -1.429688 -1.640625 -1.53125 -1.390625 -1.6875 C -0.953125 -1.96875 -0.734375 -2.460938 -0.734375 -3.171875 C -0.734375 -3.734375 -0.878906 -4.179688 -1.171875 -4.515625 C -1.472656 -4.847656 -1.859375 -5.015625 -2.328125 -5.015625 C -2.898438 -5.015625 -3.300781 -4.835938 -3.53125 -4.484375 C -3.769531 -4.128906 -3.890625 -3.640625 -3.890625 -3.015625 C -3.890625 -2.941406 -3.882812 -2.867188 -3.875 -2.796875 C -3.875 -2.722656 -3.875 -2.648438 -3.875 -2.578125 L -4.8125 -2.578125 C -4.789062 -2.691406 -4.78125 -2.785156 -4.78125 -2.859375 C -4.78125 -2.929688 -4.78125 -3.007812 -4.78125 -3.09375 C -4.78125 -3.488281 -4.84375 -3.8125 -4.96875 -4.0625 C -5.1875 -4.507812 -5.578125 -4.734375 -6.140625 -4.734375 C -6.554688 -4.734375 -6.875 -4.582031 -7.09375 -4.28125 C -7.320312 -3.988281 -7.4375 -3.644531 -7.4375 -3.25 C -7.4375 -2.550781 -7.203125 -2.066406 -6.734375 -1.796875 C -6.484375 -1.648438 -6.117188 -1.566406 -5.640625 -1.546875 L -5.640625 -0.5 C -6.265625 -0.5 -6.796875 -0.625 -7.234375 -0.875 C -8.015625 -1.300781 -8.40625 -2.054688 -8.40625 -3.140625 C -8.40625 -3.992188 -8.210938 -4.65625 -7.828125 -5.125 C -7.453125 -5.59375 -6.898438 -5.828125 -6.171875 -5.828125 C -5.660156 -5.828125 -5.242188 -5.691406 -4.921875 -5.421875 C -4.722656 -5.242188 -4.566406 -5.019531 -4.453125 -4.75 C -4.328125 -5.1875 -4.09375 -5.53125 -3.75 -5.78125 C -3.40625 -6.03125 -2.984375 -6.15625 -2.484375 -6.15625 C -1.679688 -6.15625 -1.023438 -5.890625 -0.515625 -5.359375 C -0.015625 -4.835938 0.234375 -4.09375 0.234375 -3.125 Z M 0.234375 -3.125 "/>
</g>
<g id="glyph-1-7">
<path d="M -2.96875 -3.96875 L -6.78125 -3.96875 L -2.96875 -1.28125 Z M 0 -3.984375 L -2.046875 -3.984375 L -2.046875 -0.3125 L -3.078125 -0.3125 L -8.421875 -4.15625 L -8.421875 -5.046875 L -2.96875 -5.046875 L -2.96875 -6.28125 L -2.046875 -6.28125 L -2.046875 -5.046875 L 0 -5.046875 Z M 0 -3.984375 "/>
</g>
<g id="glyph-1-8">
<path d="M -3.53125 -5.328125 L -7.328125 -4.03125 L -3.53125 -2.640625 Z M -8.609375 -3.421875 L -8.609375 -4.734375 L 0 -7.859375 L 0 -6.578125 L -2.578125 -5.703125 L -2.578125 -2.296875 L 0 -1.375 L 0 -0.171875 Z M -8.609375 -3.421875 "/>
</g>
<g id="glyph-1-9">
<path d="M -8.609375 -7.171875 L -7.578125 -7.171875 L -7.578125 -4.28125 L 0 -4.28125 L 0 -3.09375 L -7.578125 -3.09375 L -7.578125 -0.1875 L -8.609375 -0.1875 Z M -8.609375 -7.171875 "/>
</g>
<g id="glyph-2-0">
<path d="M 1.078125 -10.375 L 9.4375 -10.375 L 9.4375 0 L 1.078125 0 Z M 8.140625 -1.296875 L 8.140625 -9.078125 L 2.375 -9.078125 L 2.375 -1.296875 Z M 8.140625 -1.296875 "/>
</g>
<g id="glyph-2-1">
<path d="M 6.21875 -7.3125 C 6.820312 -6.925781 7.164062 -6.265625 7.25 -5.328125 L 5.25 -5.328125 C 5.21875 -5.585938 5.144531 -5.789062 5.03125 -5.9375 C 4.8125 -6.21875 4.4375 -6.359375 3.90625 -6.359375 C 3.46875 -6.359375 3.15625 -6.285156 2.96875 -6.140625 C 2.78125 -6.003906 2.6875 -5.847656 2.6875 -5.671875 C 2.6875 -5.441406 2.785156 -5.273438 2.984375 -5.171875 C 3.179688 -5.066406 3.878906 -4.878906 5.078125 -4.609375 C 5.878906 -4.421875 6.476562 -4.140625 6.875 -3.765625 C 7.269531 -3.378906 7.46875 -2.898438 7.46875 -2.328125 C 7.46875 -1.566406 7.179688 -0.941406 6.609375 -0.453125 C 6.046875 0.0234375 5.175781 0.265625 4 0.265625 C 2.789062 0.265625 1.898438 0.0078125 1.328125 -0.5 C 0.753906 -1.007812 0.46875 -1.660156 0.46875 -2.453125 L 2.5 -2.453125 C 2.539062 -2.085938 2.628906 -1.832031 2.765625 -1.6875 C 3.015625 -1.414062 3.476562 -1.28125 4.15625 -1.28125 C 4.539062 -1.28125 4.847656 -1.335938 5.078125 -1.453125 C 5.316406 -1.578125 5.4375 -1.753906 5.4375 -1.984375 C 5.4375 -2.210938 5.34375 -2.382812 5.15625 -2.5 C 4.96875 -2.625 4.269531 -2.828125 3.0625 -3.109375 C 2.195312 -3.328125 1.585938 -3.597656 1.234375 -3.921875 C 0.878906 -4.234375 0.703125 -4.691406 0.703125 -5.296875 C 0.703125 -6.003906 0.976562 -6.613281 1.53125 -7.125 C 2.082031 -7.632812 2.863281 -7.890625 3.875 -7.890625 C 4.832031 -7.890625 5.613281 -7.695312 6.21875 -7.3125 Z M 6.21875 -7.3125 "/>
</g>
<g id="glyph-2-2">
<path d="M 7.5625 -4.921875 L 5.515625 -4.921875 C 5.472656 -5.203125 5.375 -5.457031 5.21875 -5.6875 C 5 -6 4.648438 -6.15625 4.171875 -6.15625 C 3.503906 -6.15625 3.046875 -5.820312 2.796875 -5.15625 C 2.660156 -4.789062 2.59375 -4.316406 2.59375 -3.734375 C 2.59375 -3.171875 2.660156 -2.71875 2.796875 -2.375 C 3.035156 -1.726562 3.484375 -1.40625 4.140625 -1.40625 C 4.609375 -1.40625 4.941406 -1.53125 5.140625 -1.78125 C 5.335938 -2.039062 5.457031 -2.375 5.5 -2.78125 L 7.546875 -2.78125 C 7.503906 -2.164062 7.285156 -1.585938 6.890625 -1.046875 C 6.253906 -0.171875 5.320312 0.265625 4.09375 0.265625 C 2.863281 0.265625 1.957031 -0.0976562 1.375 -0.828125 C 0.789062 -1.554688 0.5 -2.503906 0.5 -3.671875 C 0.5 -4.992188 0.816406 -6.019531 1.453125 -6.75 C 2.097656 -7.476562 2.988281 -7.84375 4.125 -7.84375 C 5.082031 -7.84375 5.867188 -7.628906 6.484375 -7.203125 C 7.097656 -6.773438 7.457031 -6.015625 7.5625 -4.921875 Z M 7.5625 -4.921875 "/>
</g>
</g>
<clipPath id="clip-0">
<path clip-rule="nonzero" d="M 57.601562 297 L 489.601562 297 L 489.601562 299 L 57.601562 299 Z M 57.601562 297 "/>
</clipPath>
</defs>
<rect x="-50.4" y="-50.4" width="604.8" height="604.8" fill="rgb(100%, 100%, 100%)" fill-opacity="1"/>
<path fill="none" stroke-width="0.75" stroke-linecap="round" stroke-linejoin="round" stroke="rgb(0%, 0%, 0%)" stroke-opacity="1" stroke-miterlimit="10" d="M 73.601562 446.398438 L 473.601562 446.398438 "/>
<path fill="none" stroke-width="0.75" stroke-linecap="round" stroke-linejoin="round" stroke="rgb(0%, 0%, 0%)" stroke-opacity="1" stroke-miterlimit="10" d="M 73.601562 446.398438 L 73.601562 453.601562 "/>
<path fill="none" stroke-width="0.75" stroke-linecap="round" stroke-linejoin="round" stroke="rgb(0%, 0%, 0%)" stroke-opacity="1" stroke-miterlimit="10" d="M 140.265625 446.398438 L 140.265625 453.601562 "/>
<path fill="none" stroke-width="0.75" stroke-linecap="round" stroke-linejoin="round" stroke="rgb(0%, 0%, 0%)" stroke-opacity="1" stroke-miterlimit="10" d="M 206.933594 446.398438 L 206.933594 453.601562 "/>
<path fill="none" stroke-width="0.75" stroke-linecap="round" stroke-linejoin="round" stroke="rgb(0%, 0%, 0%)" stroke-opacity="1" stroke-miterlimit="10" d="M 273.601562 446.398438 L 273.601562 453.601562 "/>
<path fill="none" stroke-width="0.75" stroke-linecap="round" stroke-linejoin="round" stroke="rgb(0%, 0%, 0%)" stroke-opacity="1" stroke-miterlimit="10" d="M 340.265625 446.398438 L 340.265625 453.601562 "/>
<path fill="none" stroke-width="0.75" stroke-linecap="round" stroke-linejoin="round" stroke="rgb(0%, 0%, 0%)" stroke-opacity="1" stroke-miterlimit="10" d="M 406.933594 446.398438 L 406.933594 453.601562 "/>
<path fill="none" stroke-width="0.75" stroke-linecap="round" stroke-linejoin="round" stroke="rgb(0%, 0%, 0%)" stroke-opacity="1" stroke-miterlimit="10" d="M 473.601562 446.398438 L 473.601562 453.601562 "/>
<g fill="rgb(0%, 0%, 0%)" fill-opacity="1">
<use xlink:href="#glyph-0-1" x="70.101562" y="471.560547"/>
</g>
<g fill="rgb(0%, 0%, 0%)" fill-opacity="1">
<use xlink:href="#glyph-0-2" x="136.765625" y="471.560547"/>
</g>
<g fill="rgb(0%, 0%, 0%)" fill-opacity="1">
<use xlink:href="#glyph-0-3" x="203.433594" y="471.560547"/>
</g>
<g fill="rgb(0%, 0%, 0%)" fill-opacity="1">
<use xlink:href="#glyph-0-4" x="270.101562" y="471.560547"/>
</g>
<g fill="rgb(0%, 0%, 0%)" fill-opacity="1">
<use xlink:href="#glyph-0-5" x="336.765625" y="471.560547"/>
</g>
<g fill="rgb(0%, 0%, 0%)" fill-opacity="1">
<use xlink:href="#glyph-0-6" x="403.433594" y="471.560547"/>
</g>
<g fill="rgb(0%, 0%, 0%)" fill-opacity="1">
<use xlink:href="#glyph-0-7" x="470.101562" y="471.560547"/>
</g>
<path fill="none" stroke-width="0.75" stroke-linecap="round" stroke-linejoin="round" stroke="rgb(0%, 0%, 0%)" stroke-opacity="1" stroke-miterlimit="10" d="M 57.601562 412.625 L 57.601562 69.546875 "/>
<path fill="none" stroke-width="0.75" stroke-linecap="round" stroke-linejoin="round" stroke="rgb(0%, 0%, 0%)" stroke-opacity="1" stroke-miterlimit="10" d="M 57.601562 412.625 L 50.398438 412.625 "/>
<path fill="none" stroke-width="0.75" stroke-linecap="round" stroke-linejoin="round" stroke="rgb(0%, 0%, 0%)" stroke-opacity="1" stroke-miterlimit="10" d="M 57.601562 355.445312 L 50.398438 355.445312 "/>
<path fill="none" stroke-width="0.75" stroke-linecap="round" stroke-linejoin="round" stroke="rgb(0%, 0%, 0%)" stroke-opacity="1" stroke-miterlimit="10" d="M 57.601562 298.265625 L 50.398438 298.265625 "/>
<path fill="none" stroke-width="0.75" stroke-linecap="round" stroke-linejoin="round" stroke="rgb(0%, 0%, 0%)" stroke-opacity="1" stroke-miterlimit="10" d="M 57.601562 241.085938 L 50.398438 241.085938 "/>
<path fill="none" stroke-width="0.75" stroke-linecap="round" stroke-linejoin="round" stroke="rgb(0%, 0%, 0%)" stroke-opacity="1" stroke-miterlimit="10" d="M 57.601562 183.90625 L 50.398438 183.90625 "/>
<path fill="none" stroke-width="0.75" stroke-linecap="round" stroke-linejoin="round" stroke="rgb(0%, 0%, 0%)" stroke-opacity="1" stroke-miterlimit="10" d="M 57.601562 126.726562 L 50.398438 126.726562 "/>
<path fill="none" stroke-width="0.75" stroke-linecap="round" stroke-linejoin="round" stroke="rgb(0%, 0%, 0%)" stroke-opacity="1" stroke-miterlimit="10" d="M 57.601562 69.546875 L 50.398438 69.546875 "/>
<g fill="rgb(0%, 0%, 0%)" fill-opacity="1">
<use xlink:href="#glyph-1-1" x="39.560547" y="426.625"/>
<use xlink:href="#glyph-1-2" x="39.560547" y="422.625"/>
<use xlink:href="#glyph-1-3" x="39.560547" y="415.625"/>
<use xlink:href="#glyph-1-2" x="39.560547" y="412.625"/>
<use xlink:href="#glyph-1-4" x="39.560547" y="405.625"/>
</g>
<g fill="rgb(0%, 0%, 0%)" fill-opacity="1">
<use xlink:href="#glyph-1-1" x="39.560547" y="369.445312"/>
<use xlink:href="#glyph-1-2" x="39.560547" y="365.445312"/>
<use xlink:href="#glyph-1-3" x="39.560547" y="358.445312"/>
<use xlink:href="#glyph-1-2" x="39.560547" y="355.445312"/>
<use xlink:href="#glyph-1-5" x="39.560547" y="348.445312"/>
</g>
<g fill="rgb(0%, 0%, 0%)" fill-opacity="1">
<use xlink:href="#glyph-1-2" x="39.560547" y="310.265625"/>
<use xlink:href="#glyph-1-3" x="39.560547" y="303.265625"/>
<use xlink:href="#glyph-1-2" x="39.560547" y="300.265625"/>
<use xlink:href="#glyph-1-2" x="39.560547" y="293.265625"/>
</g>
<g fill="rgb(0%, 0%, 0%)" fill-opacity="1">
<use xlink:href="#glyph-1-2" x="39.560547" y="253.085938"/>
<use xlink:href="#glyph-1-3" x="39.560547" y="246.085938"/>
<use xlink:href="#glyph-1-2" x="39.560547" y="243.085938"/>
<use xlink:href="#glyph-1-5" x="39.560547" y="236.085938"/>
</g>
<g fill="rgb(0%, 0%, 0%)" fill-opacity="1">
<use xlink:href="#glyph-1-2" x="39.560547" y="195.90625"/>
<use xlink:href="#glyph-1-3" x="39.560547" y="188.90625"/>
<use xlink:href="#glyph-1-2" x="39.560547" y="185.90625"/>
<use xlink:href="#glyph-1-4" x="39.560547" y="178.90625"/>
</g>
<g fill="rgb(0%, 0%, 0%)" fill-opacity="1">
<use xlink:href="#glyph-1-2" x="39.560547" y="138.726562"/>
<use xlink:href="#glyph-1-3" x="39.560547" y="131.726562"/>
<use xlink:href="#glyph-1-2" x="39.560547" y="128.726562"/>
<use xlink:href="#glyph-1-6" x="39.560547" y="121.726562"/>
</g>
<g fill="rgb(0%, 0%, 0%)" fill-opacity="1">
<use xlink:href="#glyph-1-2" x="39.560547" y="81.546875"/>
<use xlink:href="#glyph-1-3" x="39.560547" y="74.546875"/>
<use xlink:href="#glyph-1-2" x="39.560547" y="71.546875"/>
<use xlink:href="#glyph-1-7" x="39.560547" y="64.546875"/>
</g>
<path fill="none" stroke-width="0.75" stroke-linecap="round" stroke-linejoin="round" stroke="rgb(0%, 0%, 0%)" stroke-opacity="1" stroke-miterlimit="10" d="M 57.601562 446.398438 L 489.601562 446.398438 L 489.601562 28.800781 L 57.601562 28.800781 Z M 57.601562 446.398438 "/>
<g fill="rgb(0%, 0%, 0%)" fill-opacity="1">
<use xlink:href="#glyph-2-1" x="265.601562" y="18.986328"/>
<use xlink:href="#glyph-2-2" x="273.601562" y="18.986328"/>
</g>
<g fill="rgb(0%, 0%, 0%)" fill-opacity="1">
<use xlink:href="#glyph-0-8" x="245.101562" y="500.361328"/>
<use xlink:href="#glyph-0-9" x="253.101562" y="500.361328"/>
<use xlink:href="#glyph-0-10" x="259.101562" y="500.361328"/>
<use xlink:href="#glyph-0-11" x="266.101562" y="500.361328"/>
<use xlink:href="#glyph-0-12" x="273.101562" y="500.361328"/>
<use xlink:href="#glyph-0-13" x="276.101562" y="500.361328"/>
<use xlink:href="#glyph-0-12" x="279.101562" y="500.361328"/>
<use xlink:href="#glyph-0-14" x="282.101562" y="500.361328"/>
<use xlink:href="#glyph-0-15" x="285.101562" y="500.361328"/>
<use xlink:href="#glyph-0-10" x="295.101562" y="500.361328"/>
</g>
<g fill="rgb(0%, 0%, 0%)" fill-opacity="1">
<use xlink:href="#glyph-1-8" x="10.759766" y="248.601562"/>
<use xlink:href="#glyph-1-9" x="10.759766" y="240.601562"/>
<use xlink:href="#glyph-1-9" x="10.759766" y="233.601562"/>
</g>
<g clip-path="url(#clip-0)">
<path fill="none" stroke-width="0.75" stroke-linecap="round" stroke-linejoin="round" stroke="rgb(60%, 60%, 60%)" stroke-opacity="1" stroke-miterlimit="10" d="M 57.601562 298.265625 L 489.601562 298.265625 "/>
</g>
<path fill-rule="nonzero" fill="rgb(27.45098%, 50.980392%, 70.588235%)" fill-opacity="0.25098" d="M 73.601562 193.875 L 140.265625 390.96875 L 206.933594 392.398438 L 273.601562 398.371094 L 340.265625 412.355469 L 406.933594 430.933594 L 473.601562 428.734375 L 473.601562 197.375 L 406.933594 236.066406 L 340.265625 243.019531 L 273.601562 267.792969 L 206.933594 217.496094 L 140.265625 233.101562 L 73.601562 44.265625 Z M 73.601562 193.875 "/>
<path fill="none" stroke-width="0.75" stroke-linecap="round" stroke-linejoin="round" stroke="rgb(27.45098%, 50.980392%, 70.588235%)" stroke-opacity="1" stroke-miterlimit="10" d="M 75.917969 119.738281 L 137.949219 302.191406 "/>
<path fill="none" stroke-width="0.75" stroke-linecap="round" stroke-linejoin="round" stroke="rgb(27.45098%, 50.980392%, 70.588235%)" stroke-opacity="1" stroke-miterlimit="10" d="M 147.335938 310.371094 L 199.863281 320.484375 "/>
<path fill="none" stroke-width="0.75" stroke-linecap="round" stroke-linejoin="round" stroke="rgb(27.45098%, 50.980392%, 70.588235%)" stroke-opacity="1" stroke-miterlimit="10" d="M 214.050781 322.941406 L 266.484375 331.023438 "/>
<path fill="none" stroke-width="0.75" stroke-linecap="round" stroke-linejoin="round" stroke="rgb(27.45098%, 50.980392%, 70.588235%)" stroke-opacity="1" stroke-miterlimit="10" d="M 280.78125 331.582031 L 333.085938 327.664062 "/>
<path fill="none" stroke-width="0.75" stroke-linecap="round" stroke-linejoin="round" stroke="rgb(27.45098%, 50.980392%, 70.588235%)" stroke-opacity="1" stroke-miterlimit="10" d="M 347.429688 327.847656 L 399.769531 333.101562 "/>
<path fill="none" stroke-width="0.75" stroke-linecap="round" stroke-linejoin="round" stroke="rgb(27.45098%, 50.980392%, 70.588235%)" stroke-opacity="1" stroke-miterlimit="10" d="M 414.109375 333.238281 L 466.421875 329.007812 "/>
<path fill-rule="nonzero" fill="rgb(27.45098%, 50.980392%, 70.588235%)" fill-opacity="1" stroke-width="0.75" stroke-linecap="round" stroke-linejoin="round" stroke="rgb(27.45098%, 50.980392%, 70.588235%)" stroke-opacity="1" stroke-miterlimit="10" d="M 76.300781 112.921875 C 76.300781 116.519531 70.898438 116.519531 70.898438 112.921875 C 70.898438 109.320312 76.300781 109.320312 76.300781 112.921875 "/>
<path fill-rule="nonzero" fill="rgb(27.45098%, 50.980392%, 70.588235%)" fill-opacity="1" stroke-width="0.75" stroke-linecap="round" stroke-linejoin="round" stroke="rgb(27.45098%, 50.980392%, 70.588235%)" stroke-opacity="1" stroke-miterlimit="10" d="M 142.964844 309.007812 C 142.964844 312.609375 137.566406 312.609375 137.566406 309.007812 C 137.566406 305.40625 142.964844 305.40625 142.964844 309.007812 "/>
<path fill-rule="nonzero" fill="rgb(27.45098%, 50.980392%, 70.588235%)" fill-opacity="1" stroke-width="0.75" stroke-linecap="round" stroke-linejoin="round" stroke="rgb(27.45098%, 50.980392%, 70.588235%)" stroke-opacity="1" stroke-miterlimit="10" d="M 209.632812 321.847656 C 209.632812 325.445312 204.234375 325.445312 204.234375 321.847656 C 204.234375 318.246094 209.632812 318.246094 209.632812 321.847656 "/>
<path fill-rule="nonzero" fill="rgb(27.45098%, 50.980392%, 70.588235%)" fill-opacity="1" stroke-width="0.75" stroke-linecap="round" stroke-linejoin="round" stroke="rgb(27.45098%, 50.980392%, 70.588235%)" stroke-opacity="1" stroke-miterlimit="10" d="M 276.300781 332.121094 C 276.300781 335.71875 270.898438 335.71875 270.898438 332.121094 C 270.898438 328.519531 276.300781 328.519531 276.300781 332.121094 "/>
<path fill-rule="nonzero" fill="rgb(27.45098%, 50.980392%, 70.588235%)" fill-opacity="1" stroke-width="0.75" stroke-linecap="round" stroke-linejoin="round" stroke="rgb(27.45098%, 50.980392%, 70.588235%)" stroke-opacity="1" stroke-miterlimit="10" d="M 342.964844 327.128906 C 342.964844 330.726562 337.566406 330.726562 337.566406 327.128906 C 337.566406 323.527344 342.964844 323.527344 342.964844 327.128906 "/>
<path fill-rule="nonzero" fill="rgb(27.45098%, 50.980392%, 70.588235%)" fill-opacity="1" stroke-width="0.75" stroke-linecap="round" stroke-linejoin="round" stroke="rgb(27.45098%, 50.980392%, 70.588235%)" stroke-opacity="1" stroke-miterlimit="10" d="M 409.632812 333.820312 C 409.632812 337.421875 404.234375 337.421875 404.234375 333.820312 C 404.234375 330.222656 409.632812 330.222656 409.632812 333.820312 "/>
<path fill-rule="nonzero" fill="rgb(27.45098%, 50.980392%, 70.588235%)" fill-opacity="1" stroke-width="0.75" stroke-linecap="round" stroke-linejoin="round" stroke="rgb(27.45098%, 50.980392%, 70.588235%)" stroke-opacity="1" stroke-miterlimit="10" d="M 476.300781 328.425781 C 476.300781 332.023438 470.898438 332.023438 470.898438 328.425781 C 470.898438 324.824219 476.300781 324.824219 476.300781 328.425781 "/>
</svg>
